<svg xmlns="http://www.w3.org/2000/svg" xmlns:xlink="http://www.w3.org/1999/xlink" width="31" height="31" viewBox="0 0 31 31">
  <defs>
    <rect id="rect-1" width="31" height="31" x="0" y="0"/>
    <mask id="mask-2" maskContentUnits="userSpaceOnUse" maskUnits="userSpaceOnUse">
      <rect width="31" height="31" x="0" y="0" fill="black"/>
      <use fill="white" xlink:href="#rect-1"/>
    </mask>
  </defs>
  <g>
    <use fill="none" xlink:href="#rect-1"/>
    <g mask="url(#mask-2)">
      <ellipse cx="23.371" cy="12.715" fill="rgb(35,184,155)" rx="1.211" ry="1.211"/>
      <path fill="rgb(35,184,155)" fill-rule="evenodd" d="M26.15625 2.421875h-1.57421875V1.2109375C24.58203125.54213672 24.03989453 0 23.37109375 0s-1.2109375.54213672-1.2109375 1.2109375V2.421875h-5.50976563V1.2109375C16.65039063.54213672 16.10825391 0 15.43945313 0c-.66880078 0-1.2109375.54213672-1.2109375 1.2109375V2.421875H8.77929689V1.2109375C8.77929688.54213672 8.23716015 0 7.56835938 0c-.66880079 0-1.2109375.54213672-1.2109375 1.2109375V2.421875H4.84375C2.17290625 2.421875 0 4.59478125 0 7.265625V26.15625C0 28.82709375 2.17290625 31 4.84375 31h9.26367188c.66880078 0 1.2109375-.54213672 1.2109375-1.2109375s-.54213672-1.2109375-1.2109375-1.2109375H4.84375c-1.33542187 0-2.421875-1.08645313-2.421875-2.421875V7.265625c0-1.33542187 1.08645313-2.421875 2.421875-2.421875h1.51367188v1.2109375c0 .66880078.54213671 1.2109375 1.2109375 1.2109375.66880078 0 1.2109375-.54213672 1.2109375-1.2109375V4.84375h5.44921874v1.2109375c0 .66880078.54213672 1.2109375 1.2109375 1.2109375.66880079 0 1.2109375-.54213672 1.2109375-1.2109375V4.84375h5.50976563v1.2109375c0 .66880078.54213672 1.2109375 1.2109375 1.2109375s1.2109375-.54213672 1.2109375-1.2109375V4.84375H26.15625c1.33542187 0 2.421875 1.08645313 2.421875 2.421875v6.90234375c0 .66880078.54213672 1.2109375 1.2109375 1.2109375S31 14.83676953 31 14.16796875V7.265625c0-2.67084375-2.17290625-4.84375-4.84375-4.84375z"/>
      <path fill="rgb(35,184,155)" fill-rule="evenodd" d="M16.34765625 23.67382813c0-4.03968812 3.28648376-7.32617188 7.32617188-7.32617188C27.71351622 16.34765625 31 19.63414001 31 23.67382813 31 27.71351622 27.71351624 31 23.67382812 31c-4.0396881 0-7.32617187-3.28648376-7.32617187-7.32617188zm2.421875 0c0 2.7042694 2.20009232 4.90429687 4.90429688 4.90429687 2.70420455 0 4.90429687-2.20002747 4.90429687-4.90429688 0-2.7042694-2.20009232-4.90429687-4.90429688-4.90429687-2.70420455 0-4.90429687 2.20002747-4.90429687 4.90429688z"/>
      <path fill="rgb(35,184,155)" fill-rule="evenodd" d="M25.4296875 22.46289063h-.54492188v-1.27148438c0-.66880078-.54213671-1.2109375-1.2109375-1.2109375-.66880078 0-1.2109375.54213672-1.2109375 1.2109375v2.48242188c0 .66880078.54213672 1.2109375 1.2109375 1.2109375h1.75585938c.66880078 0 1.2109375-.54213672 1.2109375-1.2109375 0-.66880079-.54213672-1.2109375-1.2109375-1.2109375z"/>
      <ellipse cx="18.104" cy="12.715" fill="rgb(35,184,155)" rx="1.211" ry="1.211"/>
      <ellipse cx="12.836" cy="17.982" fill="rgb(35,184,155)" rx="1.211" ry="1.211"/>
      <ellipse cx="7.568" cy="12.715" fill="rgb(35,184,155)" rx="1.211" ry="1.211"/>
      <ellipse cx="7.568" cy="17.982" fill="rgb(35,184,155)" rx="1.211" ry="1.211"/>
      <ellipse cx="7.568" cy="23.25" fill="rgb(35,184,155)" rx="1.211" ry="1.211"/>
      <ellipse cx="12.836" cy="23.25" fill="rgb(35,184,155)" rx="1.211" ry="1.211"/>
      <ellipse cx="12.836" cy="12.715" fill="rgb(35,184,155)" rx="1.211" ry="1.211"/>
    </g>
  </g>
</svg>
