<svg xmlns="http://www.w3.org/2000/svg" xmlns:xlink="http://www.w3.org/1999/xlink" width="26" height="26" viewBox="0 0 26 26">
  <defs>
    <rect id="rect-1" width="26" height="26" x="0" y="0"/>
    <mask id="mask-2" maskContentUnits="userSpaceOnUse" maskUnits="userSpaceOnUse">
      <rect width="26" height="26" x="0" y="0" fill="black"/>
      <use fill="white" xlink:href="#rect-1"/>
    </mask>
  </defs>
  <g>
    <use fill="none" xlink:href="#rect-1"/>
    <g mask="url(#mask-2)">
      <path fill="rgb(35,184,155)" fill-rule="evenodd" d="M25.29719543 11.3069458l.00178528.00177002c.93151856.93353272.93112183 2.4510498-.00119018 3.38391113-.45246887.45227051-1.05351258.70123291-1.69264221.70123291h-.39196778v7.80505371C23.21318054 24.74334717 21.95654297 26 20.41168213 26h-4.14938355c-.42073059 0-.76171875-.34100342-.76171875-.76171875v-6.11914063c0-.70477294-.5732727-1.27807617-1.2780609-1.27807617H11.7751007c-.70478821 0-1.27806092.57330323-1.27806092 1.27807617v6.11914063c0 .42071533-.34118652.76171875-.76171875.76171875H5.5859375c-1.54486084 0-2.80149841-1.25665283-2.80149841-2.80108643v-7.8050537h-.42271424c-.02479553 0-.0493927-.00115967-.0737915-.00360108-.60084534-.02575684-1.16281128-.27233887-1.58830261-.69799805-.9313202-.93133545-.9329071-2.44622803-.00456238-3.37994385l.01071167-.01092529L11.3061676.70123291C11.75843811.24896241 12.35948181 0 12.99880981 0c.639328 0 1.2403717.2491455 1.69244385.70141602L25.29719543 11.3069458z"/>
    </g>
  </g>
</svg>
