<svg xmlns="http://www.w3.org/2000/svg" xmlns:xlink="http://www.w3.org/1999/xlink" width="30" height="30" viewBox="0 0 30 30">
  <defs>
    <rect id="rect-1" width="30" height="30" x="0" y="0"/>
    <mask id="mask-2" maskContentUnits="userSpaceOnUse" maskUnits="userSpaceOnUse">
      <rect width="30" height="30" x="0" y="0" fill="black"/>
      <use fill="white" xlink:href="#rect-1"/>
    </mask>
  </defs>
  <g>
    <use fill="none" xlink:href="#rect-1"/>
    <g mask="url(#mask-2)">
      <path fill="rgb(189,189,189)" fill-rule="evenodd" d="M22.96875 3.75c-.6348421-.001638-1.26441918.11516451-1.85642578.34441406.50717774.7095387.88559938 1.50275647 1.11796875 2.34339844.04719468.16228071.00337937.33740218-.11467583.45833744-.1180552.12093527-.29206994.168958-.45544084.12568773-.1633709-.04327027-.29080067-.17113333-.33351614-.33465017-.62337096-2.25157427-2.39661231-4.00206034-4.65604958-4.59630041-2.25943727-.59424008-4.66443437.05735435-6.3148684 1.71090978C12.08239919 4.92571574 13.1242002 6.84602251 13.125 8.90625c0 .25888348-.20986652.46875-.46875.46875s-.46875-.20986652-.46875-.46875c-.00058689-2.71202767-2.10193944-4.96005301-4.80776623-5.14334461-2.70582679-.1832916-5.09115217 1.760808-5.45747872 4.4479811-.36632654 2.68717311 1.41157296 5.19882075 4.06772542 5.74649632.1895133.03884745.33569534.19012644.36802734.38085938L7.89615234 23.4375h2.85041016l-.43283203-6.06035156h.00046875c-.00082031-.01107422-.00169922-.02208985-.00169922-.03333985.00323945-.25001572.20214288-.45347728.45202105-.46237971.24987818-.00890243.46275642.17988856.48377973.42903987h.00046875L11.68646484 23.4375H14.53125v-5.15625c0-.25888348.20986652-.46875.46875-.46875s.46875.20986652.46875.46875v5.15625h2.84478516l.4376953-6.12714844h.00046876c.02102816-.24915925.23392243-.4379494.48380836-.42903105.24988594.00891835.44877997.2124051.45199242.46242949 0 .01125-.0008789.02226562-.00169922.03333984h.00046875L19.2534375 23.4375h2.85041016l1.53814453-9.09908203c.032332-.19073294.17851405-.34201193.36802734-.38085938 2.59116566-.5339338 4.35794811-2.94210763 4.08946418-5.5740539C27.83099978 5.75155842 25.6143548 3.74973265 22.96875 3.75z"/>
      <path fill="rgb(189,189,189)" fill-rule="evenodd" d="M7.96875 24.375h14.0625v3.75H7.96875v-3.75z"/>
    </g>
  </g>
</svg>
