<svg xmlns="http://www.w3.org/2000/svg" xmlns:xlink="http://www.w3.org/1999/xlink" width="28" height="28" viewBox="0 0 28 28">
  <defs>
    <rect id="rect-1" width="28" height="28" x="0" y="0"/>
    <mask id="mask-2" maskContentUnits="userSpaceOnUse" maskUnits="userSpaceOnUse">
      <rect width="28" height="28" x="0" y="0" fill="black"/>
      <use fill="white" xlink:href="#rect-1"/>
    </mask>
  </defs>
  <g>
    <use fill="none" xlink:href="#rect-1"/>
    <g mask="url(#mask-2)">
      <path fill="rgb(189,189,189)" fill-rule="evenodd" d="M19.67645247 7.93139807h2.4545268l-3.6386779-6.24266064c-.29316362-.50585096-.94272223-.67830015-1.44857318-.37938822-.50585096.29316362-.67830015.94272223-.37938822 1.44857319l3.0121125 5.17347567z"/>
      <path fill="rgb(189,189,189)" fill-rule="evenodd" d="M11.34715664 2.7579224c.29316362-.50585096.12646274-1.15540957-.37938821-1.44857319-.50585096-.29316362-1.15540957-.12646274-1.4485732.37938822L5.88051736 7.93714638h2.45452679l3.0121125-5.17922398z"/>
      <path fill="rgb(189,189,189)" fill-rule="evenodd" d="M26.19503784 9.84558105H1.79922485C.8047638 9.84558105 0 10.6503296 0 11.6447754v1.99468994c0 .9944458.8047638 1.79919434 1.79922485 1.79919434h.56332398l1.73599243 9.40997314c.21842957 1.10943604 1.23013306 1.98895264 2.28207397 1.98895264h14.87661744c1.05194091 0 2.06365966-.8795166 2.28207397-1.98895264l1.74749756-9.41571045h.91397095C27.19525146 15.43292236 28 14.62817383 28 13.63372803v-1.99468994c-.0057373-.9887085-.81051636-1.79345704-1.80496216-1.79345704zM9.93307495 17.61730957v5.6907959c0 .58062744-.47135925 1.01745605-1.0174408 1.01745605-.58058166 0-1.01745605-.4713745-1.01745605-1.01745605v-5.6907959c0-.5805664.47135925-1.01745605 1.01745606-1.01745605.5805664 0 1.0174408.4713745 1.0174408 1.01745605zm3.2650299 5.6907959v-5.6907959c0-.54608154-.47135924-1.01745605-1.01744079-1.01745605-.5460968 0-1.01745605.43688964-1.01745605 1.01745605v5.6907959c0 .54608154.43687439 1.01745605 1.01745605 1.01745605.54608155 0 1.0174408-.43682861 1.0174408-1.01745605zm3.28230286-5.6907959v5.6907959c0 .54608154-.43688964 1.01745605-1.01745605 1.01745605-.5460968 0-1.01745605-.43682861-1.01745605-1.01745605v-5.6907959c0-.54608154.47135925-1.01745605 1.01745605-1.01745605.54608154 0 1.01745605.43688964 1.01745605 1.01745605zm3.26504517 5.6907959v-5.6907959c0-.5805664-.47137451-1.01745605-1.01745605-1.01745605-.58059693 0-1.01745606.4713745-1.01745606 1.01745605v5.6907959c0 .58062744.47137451 1.01745605 1.01745606 1.01745605.5805664 0 1.01745605-.4713745 1.01745605-1.01745605z"/>
    </g>
  </g>
</svg>
