<svg xmlns="http://www.w3.org/2000/svg" xmlns:xlink="http://www.w3.org/1999/xlink" width="26" height="26" viewBox="0 0 26 26">
  <defs>
    <rect id="rect-1" width="26" height="26" x="0" y="0"/>
    <mask id="mask-2" maskContentUnits="userSpaceOnUse" maskUnits="userSpaceOnUse">
      <rect width="26" height="26" x="0" y="0" fill="black"/>
      <use fill="white" xlink:href="#rect-1"/>
    </mask>
  </defs>
  <g>
    <use fill="none" xlink:href="#rect-1"/>
    <g mask="url(#mask-2)">
      <path fill="rgb(189,189,189)" fill-rule="evenodd" d="M7.0078125 0H21.53125c.44875336 0 .8125.36376953.8125.8125V19.5c0 .44873047-.36374664.8125-.8125.8125H7.3125c-1.12003326 0-2.03125.91119385-2.03125 2.03125S6.19246674 24.375 7.3125 24.375h14.21875c.44875336 0 .8125.36376953.8125.8125s-.36374664.8125-.8125.8125H7.3125c-2.0160675 0-3.65625-1.64019775-3.65625-3.65625V3.3515625C3.65625 1.503479 5.159729 0 7.0078125 0zM5.28125 3.3515625v15.51019287c0 .18847656.19921112.31341553.36694336.22729492.43372345-.22277832.9174652-.3614502 1.42959595-.394104.13248443-.00848389.23471069-.12023926.23471069-.25305176V1.87890625C7.3125 1.7387085 7.19879913 1.625 7.05859375 1.625H7.0078125c-.9535675 0-1.7265625.77301025-1.7265625 1.7265625z"/>
      <path fill="rgb(189,189,189)" fill-rule="evenodd" d="M21.53125 21.53125H7.3125c-.4487539 0-.8125.36379687-.8125.8125s.3637461.8125.8125.8125h14.21875c.4487539 0 .8125-.36379687.8125-.8125s-.3637461-.8125-.8125-.8125z"/>
    </g>
  </g>
</svg>
